<svg xmlns="http://www.w3.org/2000/svg" xmlns:xlink="http://www.w3.org/1999/xlink" width="502" zoomAndPan="magnify" viewBox="0 0 376.5 175.5" height="234" preserveAspectRatio="xMidYMid meet" version="1.0"><defs><g/><clipPath id="e2c16be355"><path d="M 262.644531 45.46875 L 374.824219 45.46875 L 374.824219 144.9375 L 262.644531 144.9375 Z M 262.644531 45.46875 " clip-rule="nonzero"/></clipPath></defs><g clip-path="url(#e2c16be355)"><path fill="#8c52ff" d="M 375.042969 60.542969 L 375.042969 108.875 C 375.042969 117.183594 368.566406 123.949219 360.605469 123.949219 L 339.1875 123.949219 L 319.726562 144.261719 C 319.375 144.628906 318.902344 144.832031 318.410156 144.832031 C 317.914062 144.832031 317.441406 144.628906 317.09375 144.261719 L 297.628906 123.949219 L 277.128906 123.949219 C 269.164062 123.949219 262.6875 117.183594 262.6875 108.875 L 262.6875 60.542969 C 262.6875 52.230469 269.164062 45.46875 277.128906 45.46875 L 360.605469 45.46875 C 368.566406 45.46875 375.042969 52.230469 375.042969 60.542969 Z M 375.042969 60.542969 " fill-opacity="1" fill-rule="nonzero"/><path fill="#8c52ff" d="M 360.605469 45.46875 L 277.128906 45.46875 C 269.164062 45.46875 262.6875 52.230469 262.6875 60.542969 L 262.6875 108.875 C 262.6875 117.183594 269.164062 123.949219 277.128906 123.949219 L 297.628906 123.949219 L 317.09375 144.261719 C 317.441406 144.628906 317.914062 144.832031 318.410156 144.832031 C 318.902344 144.832031 319.375 144.628906 319.726562 144.261719 L 339.1875 123.949219 L 360.605469 123.949219 C 368.566406 123.949219 375.042969 117.183594 375.042969 108.875 L 375.042969 60.542969 C 375.042969 52.230469 368.566406 45.46875 360.605469 45.46875 Z M 334.804688 86.851562 L 319.351562 102.304688 C 319.3125 102.339844 319.132812 102.492188 318.859375 102.492188 C 318.59375 102.492188 318.417969 102.339844 318.378906 102.304688 L 302.925781 86.851562 C 299.25 83.523438 297.984375 78.449219 299.699219 74.238281 C 301.695312 69.328125 306.738281 68.050781 307.078125 67.96875 C 311.410156 66.957031 316.042969 68.84375 318.863281 72.6875 C 321.6875 68.84375 326.320312 66.957031 330.652344 67.96875 C 330.871094 68.019531 336.011719 69.273438 338.03125 74.238281 C 339.757812 78.484375 338.460938 83.550781 334.804688 86.851562 Z M 334.804688 86.851562 " fill-opacity="1" fill-rule="nonzero"/></g><path fill="#feffff" d="M 338.03125 74.238281 C 339.757812 78.484375 338.460938 83.550781 334.804688 86.851562 L 319.351562 102.304688 C 319.3125 102.339844 319.132812 102.492188 318.859375 102.492188 C 318.59375 102.492188 318.417969 102.339844 318.378906 102.304688 L 302.925781 86.851562 C 299.25 83.523438 297.984375 78.449219 299.699219 74.238281 C 301.695312 69.328125 306.738281 68.050781 307.078125 67.96875 C 311.410156 66.957031 316.042969 68.84375 318.863281 72.6875 C 321.6875 68.84375 326.320312 66.957031 330.652344 67.96875 C 330.871094 68.019531 336.011719 69.273438 338.03125 74.238281 Z M 338.03125 74.238281 " fill-opacity="1" fill-rule="nonzero"/><g fill="#feffff" fill-opacity="1"><g transform="translate(30.314521, 126.196124)"><g><path d="M 25.796875 -27.53125 L 25.796875 -10.78125 C 25.796875 -8.21875 26.066406 -6.34375 26.609375 -5.15625 C 27.160156 -3.96875 28.125 -3.179688 29.5 -2.796875 C 30.875 -2.410156 33.070312 -2.1875 36.09375 -2.125 L 36.09375 0 C 28.195312 -0.1875 22.328125 -0.28125 18.484375 -0.28125 C 15.273438 -0.28125 11.234375 -0.21875 6.359375 -0.09375 L 3.265625 0 L 3.265625 -1.921875 C 5.390625 -2.054688 6.945312 -2.3125 7.9375 -2.6875 C 8.9375 -3.070312 9.609375 -3.8125 9.953125 -4.90625 C 10.304688 -6 10.484375 -7.765625 10.484375 -10.203125 L 10.484375 -57.9375 C 10.484375 -60.375 10.304688 -62.140625 9.953125 -63.234375 C 9.609375 -64.328125 8.9375 -65.066406 7.9375 -65.453125 C 6.945312 -65.835938 5.390625 -66.09375 3.265625 -66.21875 L 3.265625 -68.140625 C 6.546875 -67.953125 11.425781 -67.859375 17.90625 -67.859375 L 28.59375 -67.953125 C 29.875 -68.015625 31.347656 -68.046875 33.015625 -68.046875 C 41.671875 -68.046875 48.273438 -66.328125 52.828125 -62.890625 C 57.390625 -59.460938 59.671875 -54.863281 59.671875 -49.09375 C 59.671875 -45.5625 58.769531 -42.175781 56.96875 -38.9375 C 55.175781 -35.695312 52.144531 -32.984375 47.875 -30.796875 C 43.613281 -28.617188 37.953125 -27.53125 30.890625 -27.53125 Z M 31.765625 -66.21875 C 30.023438 -66.21875 28.753906 -65.992188 27.953125 -65.546875 C 27.148438 -65.097656 26.585938 -64.296875 26.265625 -63.140625 C 25.953125 -61.984375 25.796875 -60.25 25.796875 -57.9375 L 25.796875 -29.453125 L 29.9375 -29.453125 C 35.132812 -29.453125 38.726562 -31.117188 40.71875 -34.453125 C 42.707031 -37.796875 43.703125 -42.320312 43.703125 -48.03125 C 43.703125 -54.25 42.785156 -58.832031 40.953125 -61.78125 C 39.128906 -64.738281 36.066406 -66.21875 31.765625 -66.21875 Z M 31.765625 -66.21875 "/></g></g></g><g fill="#feffff" fill-opacity="1"><g transform="translate(91.998047, 126.196124)"><g><path d="M 66.703125 -66.21875 C 64.585938 -65.894531 63.03125 -65.347656 62.03125 -64.578125 C 61.039062 -63.804688 60.367188 -62.585938 60.015625 -60.921875 C 59.660156 -59.253906 59.484375 -56.785156 59.484375 -53.515625 L 59.484375 0.1875 L 57.171875 0.09375 L 54.578125 0.1875 L 12.796875 -52.75 L 12.796875 -15.78125 C 12.796875 -12 12.988281 -9.222656 13.375 -7.453125 C 13.757812 -5.691406 14.59375 -4.410156 15.875 -3.609375 C 17.164062 -2.804688 19.253906 -2.242188 22.140625 -1.921875 L 22.140625 0 C 19.640625 -0.1875 16.175781 -0.28125 11.75 -0.28125 C 8.21875 -0.28125 5.425781 -0.1875 3.375 0 L 3.375 -1.921875 C 5.488281 -2.242188 7.039062 -2.789062 8.03125 -3.5625 C 9.03125 -4.332031 9.707031 -5.550781 10.0625 -7.21875 C 10.414062 -8.882812 10.59375 -11.351562 10.59375 -14.625 L 10.59375 -57.9375 C 10.59375 -60.375 10.414062 -62.140625 10.0625 -63.234375 C 9.707031 -64.328125 9.03125 -65.066406 8.03125 -65.453125 C 7.039062 -65.835938 5.488281 -66.09375 3.375 -66.21875 L 3.375 -68.140625 C 5.425781 -67.953125 8.21875 -67.859375 11.75 -67.859375 C 14.957031 -67.859375 17.710938 -67.953125 20.015625 -68.140625 L 57.265625 -22.234375 L 57.265625 -52.359375 C 57.265625 -56.140625 57.070312 -58.910156 56.6875 -60.671875 C 56.300781 -62.441406 55.46875 -63.726562 54.1875 -64.53125 C 52.90625 -65.332031 50.820312 -65.894531 47.9375 -66.21875 L 47.9375 -68.140625 C 50.4375 -67.953125 53.898438 -67.859375 58.328125 -67.859375 C 61.921875 -67.859375 64.710938 -67.953125 66.703125 -68.140625 Z M 66.703125 -66.21875 "/></g></g></g><g fill="#feffff" fill-opacity="1"><g transform="translate(161.476211, 126.196124)"><g><path d="M 66.703125 -66.21875 C 64.585938 -65.894531 63.03125 -65.347656 62.03125 -64.578125 C 61.039062 -63.804688 60.367188 -62.585938 60.015625 -60.921875 C 59.660156 -59.253906 59.484375 -56.785156 59.484375 -53.515625 L 59.484375 0.1875 L 57.171875 0.09375 L 54.578125 0.1875 L 12.796875 -52.75 L 12.796875 -15.78125 C 12.796875 -12 12.988281 -9.222656 13.375 -7.453125 C 13.757812 -5.691406 14.59375 -4.410156 15.875 -3.609375 C 17.164062 -2.804688 19.253906 -2.242188 22.140625 -1.921875 L 22.140625 0 C 19.640625 -0.1875 16.175781 -0.28125 11.75 -0.28125 C 8.21875 -0.28125 5.425781 -0.1875 3.375 0 L 3.375 -1.921875 C 5.488281 -2.242188 7.039062 -2.789062 8.03125 -3.5625 C 9.03125 -4.332031 9.707031 -5.550781 10.0625 -7.21875 C 10.414062 -8.882812 10.59375 -11.351562 10.59375 -14.625 L 10.59375 -57.9375 C 10.59375 -60.375 10.414062 -62.140625 10.0625 -63.234375 C 9.707031 -64.328125 9.03125 -65.066406 8.03125 -65.453125 C 7.039062 -65.835938 5.488281 -66.09375 3.375 -66.21875 L 3.375 -68.140625 C 5.425781 -67.953125 8.21875 -67.859375 11.75 -67.859375 C 14.957031 -67.859375 17.710938 -67.953125 20.015625 -68.140625 L 57.265625 -22.234375 L 57.265625 -52.359375 C 57.265625 -56.140625 57.070312 -58.910156 56.6875 -60.671875 C 56.300781 -62.441406 55.46875 -63.726562 54.1875 -64.53125 C 52.90625 -65.332031 50.820312 -65.894531 47.9375 -66.21875 L 47.9375 -68.140625 C 50.4375 -67.953125 53.898438 -67.859375 58.328125 -67.859375 C 61.921875 -67.859375 64.710938 -67.953125 66.703125 -68.140625 Z M 66.703125 -66.21875 "/></g></g></g></svg>